<svg xmlns="http://www.w3.org/2000/svg" width="24" height="24" fill="none" viewBox="0 0 24 24">
  <path fill="#707479" fill-rule="evenodd" d="M6.75 4.172h3L11.25 2h1.5l1.5 2.172h3V4l.04.172.466 2 1.369 5.88.938 4.026.035.072h-2.072l-.849-3.645-1.475-6.333H13.2l-.596-.863L12 4.434l-.604.875-.597.863H8.335l-1.512 6.424-.837 3.554H3.923l.014-.03.938-3.982L6.75 4.172ZM3 18.15v1.953h6.15l.95 2.173L12 23l1.9-.724.95-2.173H21V18.15h-7.479l-.503 1.152-.614 1.404-.404.154-.404-.154-.614-1.404-.503-1.152H3Z" clip-rule="evenodd"/>
</svg>
