<svg xmlns="http://www.w3.org/2000/svg" width="24" height="24" fill="none" viewBox="0 0 24 24">
  <mask id="a" fill="#fff">
    <path fill-rule="evenodd" d="M11.6 3h5.6l-1.6 6.6H21v4.1L17.9 21H8.15V9.033l2-2.433L11.6 3Zm-5.45 7.25H3V21h3.15V10.25Z" clip-rule="evenodd"/>
  </mask>
  <path fill="#5E8BFF" fill-rule="evenodd" d="M11.6 3h5.6l-1.6 6.6H21v4.1L17.9 21H8.15V9.033l2-2.433L11.6 3Zm-5.45 7.25H3V21h3.15V10.25Z" clip-rule="evenodd"/>
  <path fill="#5E8BFF" d="m17.2 3 1.458.353.45-1.853H17.2V3Zm-5.6 0V1.5h-1.013l-.378.94L11.6 3Zm4 6.6-1.458-.353-.45 1.853H15.6V9.6Zm5.4 0h1.5V8.1H21v1.5Zm0 4.1 1.38.586.12-.28V13.7H21ZM17.9 21v1.5h.993l.388-.914L17.9 21Zm-9.75 0h-1.5v1.5h1.5V21Zm0-11.967-1.159-.952-.341.415v.537h1.5Zm2-2.433 1.159.952.146-.178.086-.214-1.391-.56Zm-4 3.65h1.5v-1.5h-1.5v1.5Zm-3.15 0v-1.5H1.5v1.5H3ZM3 21H1.5v1.5H3V21Zm3.15 0v1.5h1.5V21h-1.5ZM17.2 1.5h-5.6v3h5.6v-3Zm-.142 8.453 1.6-6.6-2.916-.706-1.6 6.6 2.916.706ZM21 8.1h-5.4v3H21v-3Zm1.5 5.6V9.6h-3v4.1h3Zm-3.22 7.886 3.1-7.3-2.76-1.172-3.1 7.3 2.76 1.172ZM8.15 22.5h9.75v-3H8.15v3ZM6.65 9.033V21h3V9.033h-3Zm2.341-3.385-2 2.433L9.31 9.986l2-2.434-2.32-1.904ZM10.21 2.44l-1.45 3.6 2.782 1.12 1.45-3.6-2.782-1.12ZM6.15 8.75H3v3h3.15v-3Zm-4.65 1.5V21h3V10.25h-3ZM3 22.5h3.15v-3H3v3ZM7.65 21V10.25h-3V21h3Z" mask="url(#a)"/>
</svg>
