<svg xmlns="http://www.w3.org/2000/svg" width="80" height="80" fill="none" viewBox="0 0 80 80">
  <path fill="#5E8BFF" d="m33.76 44.363 4.4-13.963 4.4 11.968-3.655 7.712-5.145-5.717Z"/>
  <path fill="#5E8BFF" fill-rule="evenodd" d="m39.75 26.14-5.51-.832-1.742-4.713 9.166 1.306-1.913 4.24Zm-13.669 3.044 5.99-8.362 1.707 4.622-4.782 5.08-2.915-1.34Zm-.283.396-.027.037-2.878 3.032.334.928.688.867.897.474 1.69-2.27-.73 2.58 1.042.412 1.043-2.558.188 1.836h1.397l.25-2.27-.639-1.572-3.255-1.496Z" clip-rule="evenodd"/>
  <path fill="#5E8BFF" stroke="#fff" stroke-width=".48" d="m41.734 21.44-3.494 8.37 6.786 18.67 8.264-2.392-2.822-9.434 3.292-10.431-12.026-4.784Z"/>
  <path fill="#5E8BFF" d="m58.59 62.008-5.292-15.47-8.107 2.15 6.113 17.75.578 2.132 11.06-2.932-.529-1.952-3.823-1.678ZM22.25 52.3l16.47-1.65-5.347-5.85-13.552.466H17.6v10.255h2.034l2.615-3.22Z"/>
  <path fill="#5E8BFF" fill-rule="evenodd" d="m53.787 26.57 7.579.799 2.132 4.557-11.043-1.12 1.332-4.236Zm10.48 5.434-.213-.022-2.131-4.554.266.028 3.837-4.825 3.152 1.145-4.91 8.228Zm5.16-8.646.544-.912 2.613-3.258-.41-.898-.759-.807-.934-.399-1.492 2.4.51-2.63-1.073-.325-.825 2.635-.341-1.814-1.393.115-.059 2.282.98 1.927-.448.562 3.087 1.122ZM52.78 21.074l-2.488 1.925-3.4-1.357-.435-3.057-.796-.318.39-.96.853.341 2.364-1.828 3.399 1.356.414 2.903.708.282-.391.96-.618-.247Z" clip-rule="evenodd"/>
  <path fill="#fff" d="m52.923 18.972-5.098-2.035.721-.558 4.249 1.696.128.897Z"/>
  <path fill="#FF6B00" d="M7.04 45.44h9.76v1.6H7.04z"/>
  <path fill="#FF6B00" d="M20.488 20.488h9.76l-.976 1.6h-9.76l.976-1.6Z" opacity=".6"/>
  <path fill="#FF6B00" d="M9.6 47.68h7.2v.8H9.6z"/>
</svg>
