<svg xmlns="http://www.w3.org/2000/svg" width="80" height="80" fill="none" viewBox="0 0 80 80">
  <path fill="#FF6B00" d="m28.431 52.662 5.259 10.085h-6.017l.758-10.085Z"/>
  <path fill="#5E8BFF" d="M17.187 64.695 8.764 48.193l27.254-10.125 1.937-22.983 11.998-.714 11.956 8.498.63 21.7v14.367l2.235.655v3.4h-8.577v-1.574l-3.96-.333 2.11-20.713-.976.481-3.929 3.636-.001.081-.162.07L37.358 55.67v5.747l-2.722 1.273-5.243-9.513-6.876 2.952-.66 6.172-4.67 2.394Z"/>
  <path stroke="#fff" stroke-width=".573" d="m51.911 37.047 1.46 3.805m2.264 2.237.562 18.328m-.563-18.328 6.905 1.48m-6.904-1.48-1.46-4.78m8.364 6.26v14.367l2.235.655v3.4h-8.577v-1.574m6.342-16.848-.63-21.7-11.956-8.498m-.512 30.198-26.925 11.56-.66 6.172-4.67 2.394-8.422-16.502 27.254-10.125 1.937-22.983 11.998-.714m-.512 30.198-20.05 8.608 5.244 9.513 2.722-1.273V55.67L53.37 40.852m-3.93 3.717.368-21.7.072-4.249.072-4.25m6.244 47.047-3.96-.333 2.11-20.713-.976.481"/>
  <path fill="#fff" stroke="#fff" stroke-width=".573" d="m50.228 36.203 3.979 2.085.455 1.883-1.378.736-3.056-4.704Z"/>
  <path fill="#5E8BFF" d="m68.23 23.193 3.356 2.964-.89 4.388-4.244 1.424-3.356-2.964.89-4.388 4.244-1.424Z"/>
  <path fill="#fff" d="m69.105 31.08 1.223-6.034-.42-.37-.839-.741-1.556 7.679 1.062-.356.53-.178Z"/>
  <path stroke="#fff" stroke-width=".573" d="m31.913 36.045 17.377 8.228"/>
  <path fill="#FF6B00" d="m9.938 52.662 6.16 11.776H9.05l.888-11.776Z"/>
</svg>
