<svg xmlns="http://www.w3.org/2000/svg" width="24" height="25" fill="none" viewBox="0 0 24 25">
  <path fill="#111C2F" d="m1.5 10.665 1.233 2.212.853 1.51 2.99-3.722H1.5Zm6.901.037 11.055-.015-3.697 4.334H4.932l3.47-4.32Z"/>
  <path fill="#111C2F" d="m7.848 10.702 11.165-.015-3.696 4.334H4.379l3.47-4.32ZM6.603 8.191 3.817 3.77H1.5v6.095h5.103V8.19Zm13.81-.018L22.5 3.77H4.6l2.774 4.403 13.039.001Zm-.166 2.514h1.55v10.305h-1.484l-4.077-4.006v-1.6l2.005-2.35 2.006-2.35ZM9.456 17.026l4.082 4.006h6.01l-4.08-4.006H9.455Z"/>
</svg>
