<svg xmlns="http://www.w3.org/2000/svg" width="140" height="140" fill="none" viewBox="0 0 141 140">
  <path fill="#5E8BFF" fill-rule="evenodd" d="m53.36 49.434 18.491-7.15-2.212 8.112-12.18 4.136-4.099-5.098Zm-.867.263-5.764 1.479-.81 2.13.227 1.779 1.188 1.546 4.552-1.812-3.603 3.212 1.188 1.546 3.962-2.993-1.201 3.04 2.03 1.24 2.257-2.887.412-2.762-4.438-5.518Zm24.717 4.987-6.715-4.235 2.21-8.102 37.303 22.916-4.518 7.208h.001l-3.45 5.13-16.507-5.897-.283.79 16.307 5.826-.009.012 21.47 8.056v11.544L67.291 80.304l-2.554-.818 3.29-10.399.993-2.79 7.675-10.883.004-.004 8.623 5.454.45-.71-8.589-5.431.027-.039ZM65.4 74.606 46.19 80.62l.039 16.718 36.16-11.318-15.354-4.915-2.447-.775.003-.008-.508-.163-.4-.127.127-.4 1.59-5.025Zm40.972-1.96 4.352-6.943.009.005.955.587.031 8.593-.027.02-5.313-2.26-.007-.002Zm6.184 1.614 15.126-11.336-5.059-4.065-10.097 6.871.03 8.53Zm15.967-11.965-.147.11-5.026-4.04.011-.007.007.005-.377-3.303 1.432-3.373 2.283.673-.373 3.247 3.052-3.917 1.547 1.186-2.649 4.035 3.929-2.929 1.548 1.186.678 1.66-.23 2.267-5.684 3.2h-.001ZM45.349 80.652 23.807 47.093 5.355 59.623l2.786 3.429 8.134.73 20.098 32.224 9.016 1.553-.04-16.907ZM99.08 91.24l23.102 7.308-.005.002-36.915 14.564-1.918 7.952-3.697 1.568-9.03-20.16L99.08 91.24Z" clip-rule="evenodd"/>
  <path fill="url(#a)" d="m105.594 72.316-3.556 5.288-16.506-5.894 22.428-3.192-2.366 3.798Z"/>
  <path fill="url(#b)" d="m69.02 66.297 7.675-10.883 8.628 5.46-5.698 9.912-14.896 8.694 4.291-13.183Z"/>
  <path fill="url(#c)" d="M70.616 102.472 99.14 91.214l23.035 7.335-36.915 14.563-1.918 7.952-3.696 1.568-9.03-20.16Z"/>
  <path fill="url(#d)" d="m110.733 65.703.959.59v8.61l-5.313-2.26 4.354-6.94Z"/>
  <path fill="url(#e)" d="M46.178 80.639 65.4 74.605l-1.722 5.432 18.704 5.978-36.148 11.312-.056-16.688Z"/>
  <path fill="#5E8BFF" d="m108.372 60.722-6.161-1.687-1.68-6.18 4.48-4.492 6.16 1.686 1.681 6.18-4.48 4.493Z"/>
  <path fill="#fff" d="m110.612 58.474-2.521-9.27 1.54.422 2.1 7.725h.001l-1.12 1.123Z"/>
  <path fill="#FF6B00" d="M19.494 90.72h11.62l1.75 2.8h-13.37v-2.8Zm2.1 3.358h11.62l.875 1.4H21.594v-1.4Zm26.88-51.798h15.96l-7.24 2.8h-8.72v-2.8Z"/>
  <defs>
    <linearGradient id="a" x1="96.13" x2="95.094" y1="80.082" y2="70.422" gradientUnits="userSpaceOnUse">
      <stop stop-color="#3255A4"/>
      <stop offset="1" stop-color="#3255A4" stop-opacity="0"/>
    </linearGradient>
    <linearGradient id="b" x1="73.815" x2="82.425" y1="52.11" y2="64.99" gradientUnits="userSpaceOnUse">
      <stop offset=".01" stop-color="#3255A4"/>
      <stop offset=".993" stop-color="#3255A4" stop-opacity="0"/>
    </linearGradient>
    <linearGradient id="c" x1="121.064" x2="99.168" y1="87.473" y2="105.001" gradientUnits="userSpaceOnUse">
      <stop stop-color="#3255A4"/>
      <stop offset="1" stop-color="#3255A4" stop-opacity="0"/>
    </linearGradient>
    <linearGradient id="d" x1="106.379" x2="112.427" y1="71.229" y2="70.025" gradientUnits="userSpaceOnUse">
      <stop stop-color="#3255A4"/>
      <stop offset=".956" stop-color="#3255A4" stop-opacity="0"/>
    </linearGradient>
    <linearGradient id="e" x1="74.276" x2="46.011" y1="77.153" y2="93.057" gradientUnits="userSpaceOnUse">
      <stop stop-color="#3255A4"/>
      <stop offset="1" stop-color="#3255A4" stop-opacity="0"/>
    </linearGradient>
  </defs>
</svg>
