<svg xmlns="http://www.w3.org/2000/svg" width="140" height="140" fill="none" viewBox="0 0 141 140">
  <path fill="#FF6B00" d="m38.639 121.371-11.46-17.853v17.853h11.46Z"/>
  <path fill="#5E8BFF" fill-rule="evenodd" d="m77.918 31.321-2.65 4.826-6.402.195-2.834-4.603-1.5.045-.04-1.812 1.605-.049 2.518-4.583 6.4-.195 2.69 4.37 1.333-.041.042 1.812-1.162.035Z" clip-rule="evenodd"/>
  <path fill="#fff" d="m76.678 27.848-9.601.293.768-1.4 8.002-.244.831 1.35Z"/>
  <path fill="#5E8BFF" fill-rule="evenodd" d="M90.895 38.947H56.416L45.88 54.43l7.213 3.035 10.084-10.938.618.57-7.37 7.994-.009.456v5.138l.009.798.058 5.25 14.76 12.649 6.415 5.197.102.082.036.126.193.656 12.004-5.4-.568-.659-13.88-13.44-4.395-4.028h5.39l-.538 3.301 13.3 12.879 2.002-16.613v-4.695l-.41-17.84Zm1.26 18.313-.398-17.361.023.049 4.849 10.195.001.002-4.103 7.678-.369-.559-.003-.004Zm1.107.97 17.708-.368-1.19-5.366-12.531-1.727-3.987 7.46Zm17.226-6.42 1.347 6.072 7.323.753 1.41-1.707.445-1.93-.178-1.87-5.09.046 4.555-1.692-.534-1.647-5.357 1.202 2.166-2.345-1.083-1.469-3.398 1.96-1.606 2.627ZM90.282 80.835l-12.054 5.422 2.915 9.94-.022.007 7.523 22.781 19.026-5.572-1.274-3.122-6.412-2.884-9.702-26.572ZM80.028 95.38l-2.495-8.508-6.394-3.18h-.001l-26.412 14.6 10.05 17.958 4.411-1.652v-7.444l20.84-11.774Zm-8.412-12.389 5.595 2.783-.184-.626-4.81-3.897-.6 1.735-.001.005Zm-17.77-24.3-8.096-3.405 4.335 16.153 5.85-2.543-2.09-10.205Zm2.889 10.774-6.43 2.794.036.133.658 6.49L52.984 80l1.792.043 1.707-.944-1.111-4.772 2.637 4.043 1.707-.943-2.368-4.365 2.826 1.642 1.53-1.823-2.517-2.662-2.452-.754Z" clip-rule="evenodd"/>
  <path fill="url(#a)" d="m54.776 116.255-10.05-17.958 26.412-14.6 6.404 3.172 2.486 8.516-20.84 11.774v7.444l-4.412 1.652Z"/>
  <path fill="#3255A4" fill-opacity=".8" d="m77.038 85.159-4.82-3.906-.6 1.736 5.602 2.8-.182-.63Z"/>
  <path fill="url(#b)" d="m76.534 61.92 14.77-.434L89.302 78.1l-13.3-12.876.532-3.304Z"/>
  <path fill="url(#c)" d="m92.53 57.837-.372-.565-.378-17.316 4.849 10.195-4.098 7.686Z"/>
  <path fill="url(#d)" d="M56.416 60.691v-5.6l7.378-7.994v26.054l-7.308-6.412-.07-6.048Z"/>
  <defs>
    <linearGradient id="a" x1="76.814" x2="58.866" y1="85.889" y2="116.745" gradientUnits="userSpaceOnUse">
      <stop stop-color="#3255A4"/>
      <stop offset="1" stop-color="#3255A4" stop-opacity="0"/>
    </linearGradient>
    <linearGradient id="b" x1="83.856" x2="90.94" y1="60.954" y2="68.808" gradientUnits="userSpaceOnUse">
      <stop stop-color="#3255A4"/>
      <stop offset="1" stop-color="#3255A4" stop-opacity="0"/>
    </linearGradient>
    <linearGradient id="c" x1="90.31" x2="95.588" y1="48.891" y2="51.803" gradientUnits="userSpaceOnUse">
      <stop stop-color="#3255A4"/>
      <stop offset="1" stop-color="#3255A4" stop-opacity="0"/>
    </linearGradient>
    <linearGradient id="d" x1="56.388" x2="63.598" y1="53.565" y2="55.819" gradientUnits="userSpaceOnUse">
      <stop stop-color="#3255A4"/>
      <stop offset="1" stop-color="#3255A4" stop-opacity="0"/>
    </linearGradient>
  </defs>
</svg>
