<svg xmlns="http://www.w3.org/2000/svg" width="140" height="140" fill="none" viewBox="0 0 141 140">
  <path fill="#5E8BFF" fill-rule="evenodd" d="m87.579 38.275-4.357 3.37-5.948-2.374-.763-5.352-1.393-.555.685-1.678 1.492.595 4.136-3.2 5.948 2.374.724 5.078 1.24.494-.685 1.678-1.08-.43Z" clip-rule="evenodd"/>
  <path fill="#fff" d="m87.826 34.6-8.922-3.56 1.264-.978 7.434 2.968.224 1.57Z"/>
  <path fill="#5E8BFF" d="M18.918 99.96V81.62l28.064-1.522 9.695 10.487-29.779 3.636-4.48 5.74h-3.5Zm35.616-38.64 2.31-6.887 2.464-6.678 3.24-8.836 7.596.87 24.399 9.089-2.206 7.494-1.5 5.596-.75 2.799-.374 1.399-4.799 5.144.77.833 1.61 1.638 8.246 9.002.003.02-13.457 4.6L54.534 61.32Zm17.233 17.27L59.868 67.564 47.801 79.746l9.608 10.394 14.358-11.55Z"/>
  <path fill="#5E8BFF" d="m47.417 37.447 15.13 1.472-3.239 8.836-8.768-2.157-3.123-8.15Zm-.491.168-10.7 14.712 5.521 2.106 8.258-8.782-3.08-8.036ZM31.098 57.68l4.547-4.676 6.056 2.31 1.297 3.067-.42 3.64h-2.38l-.56-3.22-1.82 4.62-1.82-.7 1.4-4.62-2.94 3.92-1.82-.7-1.12-1.4-.42-2.24Zm64.271-8.633-2.114 7.182 19.045 2.099-4.513-7.845-12.418-1.436Zm-2.139 73.594L82.606 88.113l13.06-4.465 9.044 27.513 6.58 2.8.98 3.22-19.04 5.46Zm19.821-64.694-4.447-7.729 8.135-9.317 5.085 1.76-8.773 15.286Zm9.256-16.007 4.635-5.96-.7-2.1-1.4-1.4-1.68-.84-2.66 4.34.98-4.76-1.68-.42-1.82 5.18-.84-3.08-1.82.14-.14 3.92 1.519 3.04 5.606 1.94Z"/>
  <path fill="url(#a)" d="m84.914 71.31 4.799-5.145-16.21-7.015 11.41 12.16Z"/>
  <path fill="url(#b)" d="M71.767 78.591 59.868 67.566l-3.016 3.046-2.556 2.582 5.362 15.134 4.93-3.962 3.59-2.887 1.794-1.444 1.795-1.444Z"/>
  <path fill="url(#c)" d="m66.168 50.245-7.14-1.722-4.494 12.796 3.703 3.514 1.851 1.757.463.44 5.617-16.785Z"/>
  <path fill="url(#d)" d="m95.368 49.05-2.113 7.181 2.054.22 1.028.11 6.356.625 3.286.34-3.705-7.71-6.906-.766Z"/>
  <path stroke="#fff" stroke-width=".84" d="M85.544 71.31 73.21 59.445m-6.944-9.605-15.484-3.738"/>
  <defs>
    <linearGradient id="a" x1="71.068" x2="77.102" y1="71.316" y2="60.564" gradientUnits="userSpaceOnUse">
      <stop offset=".332" stop-color="#3255A4"/>
      <stop offset="1" stop-color="#5E8BFF"/>
    </linearGradient>
    <linearGradient id="b" x1="67.708" x2="55.346" y1="67.566" y2="75.042" gradientUnits="userSpaceOnUse">
      <stop stop-color="#3255A4"/>
      <stop offset=".485" stop-color="#375CAF"/>
      <stop offset="1" stop-color="#5E8BFF"/>
    </linearGradient>
    <linearGradient id="c" x1="49.872" x2="64.068" y1="45.695" y2="55.355" gradientUnits="userSpaceOnUse">
      <stop offset=".091" stop-color="#3255A4"/>
      <stop offset=".485" stop-color="#375CAF"/>
      <stop offset="1" stop-color="#5E8BFF"/>
    </linearGradient>
    <linearGradient id="d" x1="92.516" x2="104.682" y1="55.065" y2="52.783" gradientUnits="userSpaceOnUse">
      <stop stop-color="#3255A4"/>
      <stop offset=".708" stop-color="#5783F1"/>
      <stop offset="1" stop-color="#5E8BFF"/>
    </linearGradient>
  </defs>
</svg>
