<svg xmlns="http://www.w3.org/2000/svg" width="140" height="140" fill="none" viewBox="0 0 140 140">
  <path fill="#61FF5E" d="m59.08 77.634 7.7-24.434 7.7 20.943-6.397 13.497-9.003-10.006Z"/>
  <path fill="#61FF5E" fill-rule="evenodd" d="m69.564 45.749-9.646-1.457-3.047-8.248 16.041 2.287-3.349 7.418Zm-23.92 5.324 10.479-14.63 2.988 8.087-8.367 8.888-5.1-2.345Zm-.497.693-.047.066-5.037 5.307.584 1.624 1.204 1.517 1.57.83 2.956-3.971L45.1 61.65l1.825.722 1.825-4.476.328 3.213h2.446l.438-3.971-1.12-2.754-5.695-2.619Z" clip-rule="evenodd"/>
  <path fill="#61FF5E" stroke="#fff" stroke-width=".84" d="M73.034 37.52 66.92 52.17l11.875 32.67 14.462-4.185-4.938-16.51 5.761-18.253-21.046-8.372Z"/>
  <path fill="#61FF5E" d="m102.533 108.514-9.261-27.071-14.188 3.76 10.699 31.063 1.01 3.731 19.356-5.13-.926-3.417-6.69-2.936ZM38.936 91.525l28.824-2.887L58.403 78.4l-23.716.815H30.8V97.16h3.56l4.576-5.635Z"/>
  <path fill="#61FF5E" fill-rule="evenodd" d="m94.128 46.494 13.261 1.399 3.732 7.974-19.326-1.96 2.333-7.413Zm18.34 9.51-.373-.038-3.731-7.97.467.049 6.712-8.441 5.516 2.003-8.591 14.397Zm9.028-15.128.953-1.598 4.574-5.702-.719-1.571-1.327-1.412-1.634-.699-2.613 4.2.894-4.601-1.879-.57-1.443 4.611-.597-3.175-2.437.201-.103 3.994 1.713 3.372-.785.987 5.403 1.963Zm-29.131-4-4.354 3.368-5.948-2.374-.763-5.349-1.393-.556.684-1.678 1.49.595 4.139-3.202 5.948 2.374.724 5.08 1.239.495-.685 1.678-1.08-.431Z" clip-rule="evenodd"/>
  <path fill="#fff" d="m92.615 33.198-8.922-3.56 1.263-.978 7.435 2.967.224 1.57Z"/>
  <path fill="#FF6B00" d="M12.32 79.522H29.4v2.8H12.32z"/>
  <path fill="#FF6B00" d="M35.854 35.853h17.08l-1.708 2.8h-17.08l1.708-2.8Z" opacity=".6"/>
  <path fill="#FF6B00" d="M16.8 83.439h12.6v1.4H16.8z"/>
</svg>
