<svg xmlns="http://www.w3.org/2000/svg" width="140" height="140" fill="none" viewBox="0 0 141 140">
  <path fill="#5E8BFF" d="M43.558 116.645 31.63 98.061l29.652-15.983 9.898-30.814 12.81-2.226 14.45 10.577 2.77 30.43-1.82 25.614 4.172.986v3.353H91.37v-2.368l-5.96-.502 3.718-31.578-2.01 1.13-19.706 19.134v8.65l-4.097 1.915H52.63v-13.612l-3.04 1.84-.992 9.29-5.04 2.748Z"/>
  <path stroke="#fff" stroke-width=".84" d="m49.59 104.607-.992 9.29-5.04 2.748L31.63 98.061l29.652-15.983 9.898-30.814 12.81-2.226m-34.4 55.569 25.398-15.375 6.492-13.287 2.51-26.907m-34.4 55.569 3.04-1.84m0 0v13.612h10.685M52.63 102.767l10.685 13.612m0 0 4.097-1.915v-8.65L87.118 86.68m-2.198-5.726 2.198 5.726M83.99 49.038l14.45 10.577 2.77 30.43m-10.686 0 .846 27.585m-.846-27.584h10.686m-10.686 0-3.406-15.458m14.092 15.458-1.82 25.613 4.172.986v3.353H91.37v-2.368m0 0-5.96-.502 3.718-31.578-2.01 1.13"/>
  <path fill="url(#a)" stroke="#fff" stroke-width=".84" d="m85.41 117.128 4.026-31.956 1.088 4.874.846 27.584-5.96-.502Z"/>
  <path fill="#FF6B00" d="M52.774 116.376v-12.761l.668.851 1.336 1.701 2.67 3.403 5.344 6.806H52.774Zm-10.095-.277L31.22 98.246V116.1h11.46Z"/>
  <path fill="#fff" d="m84.928 80.96 3.447 1.858.685 2.834-2.073 1.108-2.059-5.8Z"/>
  <path stroke="#fff" stroke-width=".862" d="m88.375 82.818-8.025-4.326 4.578 2.468 2.059 5.8 2.073-1.109-.685-2.833Z"/>
  <path stroke="#fff" stroke-width=".84" d="m54.338 78.356 20.58 10.85m2.016-4.048 10.08 1.652"/>
  <path fill="url(#b)" fill-rule="evenodd" d="m86.356 86.28-1.777-5.013-4.144-2.24-2.829 5.81 8.75 1.442Zm-19.361 27.914v-8.554l19.11-18.564-8.876-1.47-1.918 3.92-22.064 13.356 10.192 12.978 3.556-1.666Z" clip-rule="evenodd"/>
  <path fill="#5E8BFF" fill-rule="evenodd" d="m100.602 69.709 5 5.777 7.503-1.442 2.503-7.218-1.252-1.446-3.128 9.021-1.875.36 3.754-10.825-2.499-2.887-7.503 1.441-2.503 7.219Z" clip-rule="evenodd"/>
  <path fill="url(#c)" d="m86.733 74.695-4.507-2.191-.336 3.556-1.078 2.198 7.588 4.088-1.667-7.651Z"/>
  <defs>
    <linearGradient id="a" x1="91.242" x2="84.508" y1="101.356" y2="117.624" gradientUnits="userSpaceOnUse">
      <stop stop-color="#3255A4"/>
      <stop offset="1" stop-color="#3255A4" stop-opacity="0"/>
    </linearGradient>
    <linearGradient id="b" x1="72.118" x2="78.138" y1="87.217" y2="113.746" gradientUnits="userSpaceOnUse">
      <stop stop-color="#3255A4"/>
      <stop offset=".755" stop-color="#3255A4" stop-opacity="0"/>
    </linearGradient>
    <linearGradient id="c" x1="79.958" x2="85.474" y1="90.648" y2="73.904" gradientUnits="userSpaceOnUse">
      <stop offset=".356" stop-color="#3255A4"/>
      <stop offset="1" stop-color="#5E8BFF"/>
    </linearGradient>
  </defs>
</svg>
