<svg xmlns="http://www.w3.org/2000/svg" width="68" height="110" fill="none" viewBox="0 0 68 110">
  <g clip-path="url(#a)">
    <path fill="#5E8BFF" fill-rule="evenodd" d="M35.396 36.066 8.572 39.122l1.668 16.452-.008.001 2.346 22.278.012.438 12.599-.842-2.405-20.67 4.672-.563 4.115 20.806 13.128-.878-4.851-22.976-1.868-7.65-.01.002-2.574-9.454ZM.116 61.248l7.857-21.203 1.554 15.322-2.668 7.944-6.744-2.063Zm-.148.676L.993 79.575l5.334-.412.325-15.195-6.684-2.044Zm6.605 17.911-5.607.433-1.012 6.83 1.06.53 1.59.232 1.36-.431.563-3.943.994 3.81 1.49-.596-.993-3.744 1.955 2.352 1.458-.894-1.458-3.711-1.4-.868Zm6.767 26.481-.732-27.336 12.638-.845.851 24.006 3.48 4.175v3.678H13.34v-3.678Zm20.08.132-1.766-28.741 13.126-.877 1.662 25.742 5.169 4.174v3.248H33.42v-3.546Zm5.047-61.727 13.806 1.99-2.825-7.623-13.345-3.046 2.364 8.68Zm14.452 1.75 9.172-12.948-4.504-2.431-7.416 7.964 2.748 7.414Zm10.09-14.244-.517.73-4.42-2.387-1.292-3.214.397-3.645h2.22l.299 2.95 1.656-4.11 1.657.663-1.16 4.142 2.684-3.645 1.425.763 1.094 1.391.53 1.491-4.573 4.871Z" clip-rule="evenodd"/>
    <path fill="url(#b)" d="M7.969 40.05.126 61.248l6.718 2.067 2.675-7.923-1.55-15.34Z"/>
    <path fill="url(#c)" d="M49.454 39.086 36.1 36.043l2.366 8.68 13.813 1.987-2.825-7.624Z"/>
    <path fill="url(#d)" d="m27.454 56.217 4.11 20.806L44.7 76.15l-4.604-21.804-12.642 1.871Z"/>
    <path fill="url(#e)" d="M7.969 40.05.126 61.248l6.718 2.067 2.675-7.923-1.55-15.34Z"/>
    <path fill="url(#f)" d="m10.495 58.1 2.101 20.187 12.596-.839-2.411-20.668-12.286 1.32Z"/>
    <path fill="#5E8BFF" fill-rule="evenodd" d="m23.949 33.85 1.77-5.104 1.116-.215-.337-1.755-1.282.246-1.265-1.462-9.23 1.773-.654 1.888-1.544.296.337 1.756 1.442-.277 3.493 4.037 6.154-1.183Zm-8.714-7.997 7.69-1.477-1.024-1.184-6.153 1.183-.513 1.478Z" clip-rule="evenodd"/>
    <path fill="#FF6B00" d="m46.283 11.565 7.088.827 1.403 6.997-6.22 3.497-5.248-4.835 2.977-6.486Z"/>
    <path fill="#FF6B00" d="m57.28 5.64 4.707-.69 2.111 4.263-3.402 3.325-4.213-2.208.798-4.69Z" opacity=".7"/>
    <path fill="#FF6B00" d="m46.236.1 2.545 1.894-1.015 3.004-3.171-.036-.945-3.027L46.236.1Z" opacity=".3"/>
  </g>
  <defs>
    <linearGradient id="b" x1="10.495" x2="2.653" y1="37.823" y2="52.635" gradientUnits="userSpaceOnUse">
      <stop stop-color="#3255A4"/>
      <stop offset="1" stop-color="#3255A4" stop-opacity="0"/>
    </linearGradient>
    <linearGradient id="c" x1="32.598" x2="43.162" y1="37.524" y2="40.418" gradientUnits="userSpaceOnUse">
      <stop stop-color="#3255A4"/>
      <stop offset="1" stop-color="#3255A4" stop-opacity="0"/>
    </linearGradient>
    <linearGradient id="d" x1="27.466" x2="36.077" y1="31.806" y2="64.266" gradientUnits="userSpaceOnUse">
      <stop stop-color="#3255A4"/>
      <stop offset="1" stop-color="#3255A4" stop-opacity="0"/>
    </linearGradient>
    <linearGradient id="e" x1="10.495" x2="2.653" y1="37.823" y2="52.635" gradientUnits="userSpaceOnUse">
      <stop stop-color="#3255A4"/>
      <stop offset="1" stop-color="#3255A4" stop-opacity="0"/>
    </linearGradient>
    <linearGradient id="f" x1="20.496" x2="19.302" y1="31.427" y2="67.539" gradientUnits="userSpaceOnUse">
      <stop stop-color="#3255A4"/>
      <stop offset="1" stop-color="#3255A4" stop-opacity="0"/>
    </linearGradient>
    <clipPath id="a">
      <path fill="#fff" d="M0 0h67.516v110H0z"/>
    </clipPath>
  </defs>
</svg>
