<svg width="32" height="32" viewBox="0 0 32 32" fill="none" xmlns="http://www.w3.org/2000/svg">
<path d="M16 3L31 9.40965L15.9635 17.7575L1 9.40965L16 3Z" fill="#D9D9D9"/>
<path d="M16 3L31 9.40965L30.6641 9.60052L15.9635 17.7575L1.28112 9.56948L1 9.40965L16 3Z" fill="white"/>
<path d="M5.17385 13.3486L5.31391 25.4292L8.83852 28.9624V15.4245L5.17385 13.3486Z" fill="white"/>
<path d="M9.40139 29.6667H10.3385V16.2742L15.9635 19.4604L21.5885 16.2742V29.6666H22.5893L9.40139 29.6667Z" fill="white"/>
<path d="M23.0885 29.1619L25.3868 26.838L26.7922 25.4292V13.3265L23.0885 15.4245V29.1619Z" fill="white"/>
<path d="M29.3333 12.4693L30.9999 11.3335V19.6668H29.3333V12.4693Z" fill="#FFA444"/>
</svg>
