<svg width="32" height="32" viewBox="0 0 32 32" fill="none" xmlns="http://www.w3.org/2000/svg">
<path fill-rule="evenodd" clip-rule="evenodd" d="M12.3233 4.6H19.9235V3H12.3233V4.6ZM0 5.20659H0.8H31.2009H32.0009V6.00659V25.1297V25.9297H31.2009H19.678V24.3297H30.4009V6.80659H1.6V21.207H0V6.00659V5.20659ZM9.13556 9.68423L13.3628 12.1248V17.0061L9.13556 19.4467L4.90829 17.0061V12.1248L9.13556 9.68423ZM8.37853 29.6478L12.8295 21.6873L18.2082 29.6478H8.37853ZM11.9066 21.6919H5.44316L0.0644013 29.6525H7.45572L11.9066 21.6919Z" fill="white"/>
<path d="M15.7452 24.184L16.8004 25.8005L20.5857 19.0001L19.2001 18.2001L15.7452 24.184Z" fill="#FFA444"/>
</svg>
