<svg xmlns="http://www.w3.org/2000/svg" width="284" height="233" fill="none" viewBox="0 0 284 233">
  <path fill="#5E8BFF" d="m140 55 29 22h-58l29-22Z"/>
  <mask id="a" width="58" height="22" x="111" y="55" maskUnits="userSpaceOnUse" style="mask-type:alpha">
    <path fill="#7EA2FF" d="m140 55 29 22h-58l29-22Z"/>
  </mask>
  <g mask="url(#a)">
    <circle cx="75.642" cy=".642" r="98.642" fill="#7EA2FF"/>
  </g>
  <path stroke="#5E8BFF" stroke-width="8" d="m204 147-64-48-64 48"/>
  <path fill="#3255A4" fill-rule="evenodd" d="M118 79v25h5.333l13.067-9.8 3.6-2.7 3.6 2.7 13.067 9.8H162V79h-44Z" clip-rule="evenodd"/>
  <path fill="#5E8BFF" fill-rule="evenodd" d="M118 97.677V104h5.333l13.067-9.8 3.6-2.7 3.6 2.7 13.067 9.8H162V79h-16.253A98.802 98.802 0 0 1 118 97.677Z" clip-rule="evenodd"/>
  <path fill="#3255A4" fill-rule="evenodd" d="M120.667 106H89v23.75L120.667 106ZM89 144.75V189h100v-45.75l-49-36.75-51 38.25Zm100-16.5V106h-29.667L189 128.25Z" clip-rule="evenodd"/>
  <path fill="#5E8BFF" d="M89 130v-24h100v22.615L159 106h-38l-32 24Z"/>
  <path fill="#5E8BFF" fill-opacity=".1" d="M23 0h234v233H23z"/>
  <path fill="#fff" fill-rule="evenodd" d="M46 50a4 4 0 0 1 4-4h5a4 4 0 0 1 4 4v4H33a2 2 0 0 1 2-2h11v-2Zm10 14a4 4 0 0 1 4-4h5v-2a4 4 0 0 1 4-4h6a4 4 0 0 1 4 4v2h5a4 4 0 0 1 4 4v2h4a2 2 0 0 1 2 2H75v-3h-6v3H50a2 2 0 0 1 2-2h4v-2Zm178-14a4 4 0 0 0-4-4h-5a4 4 0 0 0-4 4v4h26a2 2 0 0 0-2-2h-11v-2Zm-10 14a4 4 0 0 0-4-4h-5v-2a4 4 0 0 0-4-4h-6a4 4 0 0 0-4 4v2h-5a4 4 0 0 0-4 4v2h-4a2 2 0 0 0-2 2h19v-3h6v3h19a2 2 0 0 0-2-2h-4v-2ZM39 98H25.375a3.966 3.966 0 0 1-1.394 0H16a2 2 0 0 1 2-2h3.208a3.95 3.95 0 0 1 5.082-5.497A4.001 4.001 0 0 1 30 88h5a4 4 0 0 1 4 4v4h1a2 2 0 0 1 2 2h-3Z" clip-rule="evenodd"/>
  <path stroke="#213049" stroke-linecap="square" stroke-linejoin="round" stroke-width="4" d="M2 191h276"/>
  <path fill="#fff" fill-rule="evenodd" d="M280.523 118a4 4 0 0 0-4-4h-8.366a4 4 0 0 0-4 4v.177a4.008 4.008 0 0 0-1.206-.185h-1.98a4 4 0 0 0-4 4v.301H255a4 4 0 0 0-4 4v.293a4 4 0 0 0 4 4h24.841a4 4 0 0 0 4-4v-.293a4.002 4.002 0 0 0-3.318-3.942V118Z" clip-rule="evenodd"/>
  <path fill="#D7D8DE" d="M244 189h-10.81c-9.505 0-5.404-2.825-3-3.372-5.375-1.918-1.414-5.529 1.303-4.023-1.698-6.573 4.102-5.204 5.233-1.506 2.264-3.835 6.224-1.918 3.82 2.191 4.102-1.781 4.102 1.78 2.404 2.876 4.102.684 1.81 1.968-.453 1.968C244 187.5 244 188 244 189Z"/>
  <path fill="#E1E1E5" d="M235.5 189H215c0-1.866 1.571-2.825 3.976-3.372-5.376-1.918-1.415-5.529 1.302-4.023-1.697-6.573 4.102-5.204 5.234-1.506 2.263-3.835 6.224-1.918 3.819 2.191 4.102-1.781 4.102 1.78 2.405 2.876 4.102.684 1.809 1.968-.454 1.968 3.718 0 4.218.366 4.218 1.866Z"/>
  <path fill="#DDE1E6" d="M68.324 189H45c0-2.488.434-3.766 3.685-4.497-7.267-2.556-1.912-7.372 1.761-5.363-2.295-8.765 5.547-6.939 7.077-2.009 3.06-5.112 8.416-2.556 5.164 2.922 5.547-2.374 5.547 2.374 3.252 3.834 5.546.913 2.446 2.625-.614 2.625 2.661 0 2.999 1.155 2.999 2.488Z"/>
  <g opacity=".6">
    <rect width="22" height="49" x="219" y="93" fill="#E9EBF2" rx="4"/>
    <path fill="#DDE1E6" d="M229 113h2v76h-2z"/>
    <path fill="#DDE1E6" d="m235.02 115.54 1.073.62-5.22 9.042-1.073-.62zm-4.767 16.676 1.073-.62-7.345-12.721-1.073.62z"/>
  </g>
  <g opacity=".6">
    <rect width="22" height="49" x="47" y="93" fill="#E9EBF2" rx="4"/>
    <path fill="#DDE1E6" d="M57 113h2v76h-2z"/>
    <path fill="#DDE1E6" d="m63.02 115.54 1.073.62-5.22 9.042-1.073-.62zm-4.767 16.676 1.073-.62-7.345-12.721-1.073.62z"/>
  </g>
  <path fill="#5E8BFF" fill-rule="evenodd" d="M89 172.19v16.811h100V143.25l-21.473-16.104C150.696 153.167 121.944 170.757 89 172.19Z" clip-rule="evenodd"/>
  <path stroke="#5E8BFF" stroke-width="2" d="M153 189v-30c0-7.732-6.268-14-14-14s-14 6.268-14 14v30"/>
  <circle cx="139" cy="128" r="9" fill="#5E8BFF"/>
  <path fill="#fff" fill-rule="evenodd" d="M124 163.574v25.427h2v-26.312c-.663.302-1.329.597-2 .885Zm23.631-14.319a12.968 12.968 0 0 1 4.369 9.721v30.025h2v-30.025c0-4.353-1.855-8.274-4.818-11.014-.512.436-1.029.867-1.551 1.293Z" clip-rule="evenodd"/>
  <path fill="#213049" d="M142 39h16l-8 6 8 6h-16V39Z"/>
  <path stroke="#3255A4" stroke-width="5" d="M140 39v18"/>
</svg>
