<svg xmlns="http://www.w3.org/2000/svg" width="120" height="120" fill="none" viewBox="0 0 120 120">
  <g opacity=".4">
    <path fill="#AFAFAF" fill-rule="evenodd" d="m74.695 32.812-3.738 2.891-5.098-2.034-.654-4.59-1.194-.476.587-1.439 1.28.511 3.544-2.74 5.098 2.034.62 4.348 1.063.424-.587 1.438-.92-.367Z" clip-rule="evenodd"/>
    <path fill="#fff" d="m74.904 29.666-7.647-3.052 1.082-.837 6.373 2.543.192 1.346Z"/>
    <path fill="#AFAFAF" d="M15.84 85.678v-15.72l24.055-1.305 8.31 8.99-25.525 3.115-3.84 4.92h-3Zm30.528-33.12 1.98-5.903 2.112-5.725 2.776-7.573 6.512.745 20.913 7.791-1.89 6.424-1.286 4.797-.643 2.398-.321 1.2-4.113 4.408.66.714 1.38 1.404 7.068 7.716.002.017-11.534 3.943-23.616-22.356ZM61.139 67.36l-10.2-9.45-10.343 10.442 8.236 8.908 12.306-9.9Z"/>
    <path fill="#AFAFAF" d="m40.267 32.095 12.97 1.262-2.777 7.573-7.516-1.848-2.677-6.987Zm-.421.145-9.17 12.61 4.732 1.805 7.078-7.528-2.64-6.888ZM26.28 49.438l3.897-4.008 5.19 1.98 1.113 2.628-.36 3.12h-2.04l-.48-2.76-1.56 3.96-1.56-.6 1.2-3.96-2.52 3.36-1.56-.6-.96-1.2-.36-1.92Zm55.089-7.4-1.812 6.156 16.325 1.8-3.869-6.725-10.644-1.23Zm-1.833 63.08-9.107-29.595 11.194-3.827 7.753 23.582 5.64 2.4.84 2.76-16.32 4.68Zm16.989-55.451-3.812-6.625 6.974-7.986 4.357 1.509-7.52 13.102Zm7.934-13.721 3.973-5.108-.6-1.8-1.2-1.2-1.44-.72-2.28 3.72.84-4.08-1.44-.36-1.56 4.44-.72-2.64-1.56.12-.12 3.36 1.302 2.605 4.805 1.663Z"/>
    <path fill="url(#a)" d="m72.408 61.117 4.113-4.409-13.893-6.013 9.78 10.422Z"/>
    <path fill="url(#b)" d="m61.139 67.356-10.2-9.45-2.585 2.61-2.19 2.214 4.596 12.972 4.226-3.396 3.076-2.475 1.538-1.237 1.539-1.238Z"/>
    <path fill="url(#c)" d="m56.34 43.066-6.12-1.476-3.852 10.968 3.174 3.012 1.587 1.506.396.376 4.815-14.386Z"/>
    <path fill="url(#d)" d="m81.369 42.04-1.812 6.156 1.761.189.88.094 5.45.535 2.816.292-3.176-6.61-5.92-.656Z"/>
    <path stroke="#fff" stroke-width=".72" d="M72.948 61.12 62.376 50.95m-5.952-8.226L43.152 39.52"/>
  </g>
  <defs>
    <linearGradient id="a" x1="60.54" x2="65.712" y1="61.123" y2="51.907" gradientUnits="userSpaceOnUse">
      <stop offset=".332" stop-color="#6B6B6B"/>
      <stop offset="1" stop-color="#AFAFAF"/>
    </linearGradient>
    <linearGradient id="b" x1="57.66" x2="47.064" y1="57.906" y2="64.314" gradientUnits="userSpaceOnUse">
      <stop stop-color="#6B6B6B"/>
      <stop offset=".485" stop-color="#737373"/>
      <stop offset="1" stop-color="#AFAFAF"/>
    </linearGradient>
    <linearGradient id="c" x1="42.372" x2="54.54" y1="39.166" y2="47.446" gradientUnits="userSpaceOnUse">
      <stop offset=".091" stop-color="#6B6B6B"/>
      <stop offset=".485" stop-color="#737373"/>
      <stop offset="1" stop-color="#AFAFAF"/>
    </linearGradient>
    <linearGradient id="d" x1="78.924" x2="89.352" y1="47.197" y2="45.24" gradientUnits="userSpaceOnUse">
      <stop stop-color="#6B6B6B"/>
      <stop offset=".708" stop-color="#A4A4A4"/>
      <stop offset="1" stop-color="#AFAFAF"/>
    </linearGradient>
  </defs>
</svg>
