<svg xmlns="http://www.w3.org/2000/svg" width="32" height="28" fill="none" viewBox="0 0 32 28">
  <g opacity=".2">
    <mask id="a" fill="#fff">
      <path d="m32 14-8 14H8L0 14 8 0h16l8 14Z"/>
    </mask>
    <path fill="#5E8BFF" d="m32 14-8 14H8L0 14 8 0h16l8 14Z"/>
    <path fill="#5E8BFF" d="m32 14 .868.496.284-.496-.284-.496L32 14Zm-8 14v1h.58l.288-.504L24 28ZM8 28l-.868.496.288.504H8v-1ZM0 14l-.868-.496-.284.496.284.496L0 14ZM8 0v-1h-.58l-.288.504L8 0Zm16 0 .868-.496L24.58-1H24v1Zm7.132 13.504-8 14 1.736.992 8-14-1.736-.992ZM24 27H8v2h16v-2Zm-15.132.504-8-14-1.736.992 8 14 1.736-.992Zm-8-13.008 8-14-1.736-.992-8 14 1.736.992ZM8 1h16v-2H8v2ZM23.132.496l8 14 1.736-.992-8-14-1.736.992Z" mask="url(#a)"/>
  </g>
  <path fill="#5E8BFF" fill-rule="evenodd" d="m20.764 13.104-4.068 4.11-.704.71-.703-.71L7.1 8.942 4.211 14l5.894 10.316h11.79L27.789 14 21.895 3.685h-11.79L8.131 7.139l7.861 7.943 3.365-3.4 1.407 1.422Z" clip-rule="evenodd"/>
  <path stroke="#fff" stroke-width="2" d="m20.06 12.434-4.068 4.123L4.324 4.73"/>
</svg>
