<svg xmlns="http://www.w3.org/2000/svg" width="32" height="28" fill="none" viewBox="0 0 32 28">
  <mask id="a" fill="#fff">
    <path d="m32 14-8 14H8L0 14 8 0h16l8 14Z"/>
  </mask>
  <path fill="#F3F4F6" d="m32 14 .695.397.226-.397-.226-.397L32 14Zm-8 14v.8h.464l.23-.403L24 28ZM8 28l-.695.397.23.403H8V28ZM0 14l-.695-.397L-.92 14l.226.397L0 14ZM8 0v-.8h-.464l-.23.403L8 0Zm16 0 .695-.397-.23-.403H24V0Zm7.305 13.603-8 14 1.39.794 8-14-1.39-.794ZM24 27.2H8v1.6h16v-1.6Zm-15.305.403-8-14-1.39.794 8 14 1.39-.794Zm-8-13.206 8-14-1.39-.794-8 14 1.39.794ZM8 .8h16V-.8H8V.8ZM23.305.397l8 14 1.39-.794-8-14-1.39.794Z" mask="url(#a)"/>
  <path fill="#DDE1E6" d="m27.79 14-5.895 10.316h-11.79L4.21 14l5.895-10.315h11.79L27.789 14Z"/>
  <path stroke="#fff" stroke-width="2" d="m20.06 12.393-4.068 4.11-4.068-4.11"/>
</svg>
