<svg xmlns="http://www.w3.org/2000/svg" width="38" height="24" fill="none" viewBox="0 0 38 24">
  <path fill="#5E8BFF" d="m16.69 18 5.564 6h7.664l-5.563-6H16.69Z"/>
  <path fill="#5E8BFF" d="m24.355 18 5.564 6h7.663l-5.563-6h-7.664ZM16.01 9l5.563 6h7.664l-5.564-6H16.01ZM7.664 0l5.563 6h7.664l-5.564-6H7.664Zm.681 9 5.564 6h7.664l-5.564-6H8.345Z"/>
  <path fill="#5E8BFF" d="m0 0 5.564 6h7.663L7.664 0H0Zm21.573 15 1.39 1.5 1.392 1.5h7.663l-2.781-3h-7.664ZM5.564 6l1.39 1.5L8.347 9h7.663l-2.782-3H5.564Z"/>
</svg>
