<svg xmlns="http://www.w3.org/2000/svg" width="18" height="18" fill="none" viewBox="0 0 18 18">
  <mask id="a" fill="#fff">
    <path fill-rule="evenodd" d="M8.7 2.25h4.2L11.7 7.2h4.05v3.075l-2.325 5.475H6.112V6.775l1.5-1.825L8.7 2.25ZM4.613 7.688H2.25v8.062h2.362V7.687Z" clip-rule="evenodd"/>
  </mask>
  <path fill="#5E8BFF" fill-rule="evenodd" d="M8.7 2.25h4.2L11.7 7.2h4.05v3.075l-2.325 5.475H6.112V6.775l1.5-1.825L8.7 2.25ZM4.613 7.688H2.25v8.062h2.362V7.687Z" clip-rule="evenodd"/>
  <path fill="#5E8BFF" d="m12.9 2.25 1.093.265.337-1.39H12.9V2.25Zm-4.2 0V1.125h-.76l-.284.705 1.044.42Zm3 4.95-1.093-.265-.337 1.39h1.43V7.2Zm4.05 0h1.125V6.075H15.75V7.2Zm0 3.075 1.035.44.09-.211v-.229H15.75Zm-2.325 5.475v1.125h.744l.291-.685-1.035-.44Zm-7.313 0H4.987v1.125h1.125V15.75Zm0-8.975-.869-.714-.256.311v.403h1.125Zm1.5-1.825.87.714.11-.133.064-.16-1.043-.421Zm-3 2.737h1.125V6.563H4.612v1.125Zm-2.362 0V6.563H1.125v1.125H2.25Zm0 8.063H1.125v1.125H2.25V15.75Zm2.362 0v1.125h1.125V15.75H4.612ZM12.9 1.125H8.7v2.25h4.2v-2.25Zm-.107 6.34 1.2-4.95-2.186-.53-1.2 4.95 2.186.53Zm2.957-1.39H11.7v2.25h4.05v-2.25Zm1.125 4.2V7.2h-2.25v3.075h2.25ZM14.46 16.19l2.325-5.475-2.07-.88-2.325 5.475 2.07.88Zm-8.348.685h7.313v-2.25H6.112v2.25Zm-1.125-10.1v8.975h2.25V6.775h-2.25Zm1.756-2.54-1.5 1.826 1.739 1.428 1.5-1.825-1.739-1.428Zm.913-2.405L6.57 4.53l2.087.84 1.088-2.7-2.088-.84ZM4.613 6.562H2.25v2.25h2.362v-2.25ZM1.124 7.688v8.063h2.25V7.687h-2.25Zm1.125 9.188h2.362v-2.25H2.25v2.25Zm3.487-1.125V7.687h-2.25v8.063h2.25Z" mask="url(#a)"/>
</svg>
