<svg xmlns="http://www.w3.org/2000/svg" width="280" height="233" fill="none" viewBox="0 0 280 233">
  <g opacity=".6">
    <rect width="20" height="48" x="27" y="95" fill="#E9EBF2" rx="4"/>
    <path fill="#E1E2E5" d="M36.023 110h1v81h-1z"/>
    <path fill="#DDE1E6" d="M36.023 143h1v48h-1z"/>
    <path fill="#E1E2E5" d="m41.22 117.125.867.5-5.22 9.043-.867-.5zM36 132.283l.866-.5-6-10.392-.866.5z"/>
  </g>
  <rect width="29.67" height="69.968" x="53.785" y="54.196" fill="#E9EBF2" rx="4"/>
  <path fill="#E1E2E5" d="M68 68h1v124h-1z"/>
  <path fill="#DDE1E6" d="M68 124h1v68h-1z"/>
  <path fill="#E1E2E5" d="m75.264 82 .866.5-7.465 12.93-.867-.5zm-6.817 23.847.866-.5L58.81 87.155l-.866.5z"/>
  <path fill="#E9EBF2" d="M41.747 189h-8.204c-9.505 0-5.404-2.825-3-3.372-5.375-1.918-1.414-5.529 1.303-4.023-1.698-6.573 4.102-5.204 5.233-1.506 2.264-3.835 6.224-1.918 3.82 2.191 4.102-1.781 4.102 1.78 2.404 2.876 4.102.684 1.81 1.968-.454 1.968 2.688 1.506.708 1.866-1.102 1.866Z"/>
  <path fill="#DDE1E6" d="M46.388 189.16h-4.21c-4.877 0-2.773-1.449-1.539-1.73-2.758-.984-.726-2.837.668-2.064-.87-3.373 2.105-2.671 2.686-.773 1.161-1.968 3.193-.984 1.96 1.124 2.104-.914 2.104.913 1.233 1.475 2.105.352.929 1.01-.232 1.01 1.379.773.362.958-.566.958Zm27.204-.16h-8.204c-9.505 0-5.404-2.825-3-3.372-5.375-1.918-1.414-5.529 1.303-4.023-1.698-6.573 4.102-5.204 5.233-1.506 2.264-3.835 6.224-1.918 3.82 2.191 4.102-1.781 4.102 1.78 2.404 2.876 4.103.684 1.81 1.968-.453 1.968 2.687 1.506.707 1.866-1.103 1.866Z"/>
  <path fill="#DDE1E6" d="M78.233 189.157h-4.21c-4.877 0-2.772-1.449-1.539-1.73-2.758-.984-.725-2.837.669-2.064-.871-3.373 2.104-2.67 2.685-.773 1.161-1.968 3.194-.984 1.96 1.124 2.105-.913 2.105.914 1.234 1.476 2.104.351.928 1.01-.233 1.01 1.379.773.363.957-.566.957Z"/>
  <path fill="#3255A4" d="M110 95h60v4h-60zm0 30h60v4h-60zm0 30h60v4h-60zm0 30h60v4h-60z"/>
  <path fill="#7EA2FF" d="M100 71h80v22h-80z"/>
  <path fill="#F0F3FF" d="M112.365 89.14h32.078V93h-32.078v-3.86Z"/>
  <path fill="#7EA2FF" d="M100 101h80v22h-80z"/>
  <path fill="#F0F3FF" d="M112.365 119.14h32.078v3.859h-32.078v-3.859Z"/>
  <path fill="#7EA2FF" d="M100 131h80v22h-80z"/>
  <path fill="#F0F3FF" d="M112.365 149.14h32.078v3.859h-32.078v-3.859Z"/>
  <path fill="#7EA2FF" d="M100 161h80v22h-80z"/>
  <path fill="#5E8BFF" fill-rule="evenodd" d="M140.228 93c.037-1.115.056-2.234.056-3.358 0-6.373-.604-12.605-1.759-18.642H180v22h-39.772Zm-5.727 30a98.065 98.065 0 0 0 5.136-22H180v22h-45.499Zm-17.252 30a98.664 98.664 0 0 0 13.972-22H180v22h-62.751ZM100 169.178a99.237 99.237 0 0 0 9.747-8.178H180v22h-80v-13.822Z" clip-rule="evenodd"/>
  <path fill="#F0F3FF" d="M112.365 179.14h32.078v3.859h-32.078v-3.859Z"/>
  <path fill="#fff" d="M150 79h16v2h-16z"/>
  <circle cx="173" cy="80" r="3" fill="#fff"/>
  <path fill="#fff" d="M150 109h16v2h-16z"/>
  <circle cx="173" cy="110" r="3" fill="#fff"/>
  <path fill="#fff" d="M150 139h16v2h-16z"/>
  <circle cx="173" cy="140" r="3" fill="#fff"/>
  <path fill="#fff" d="M150 169h16v2h-16z"/>
  <circle cx="173" cy="170" r="3" fill="#fff"/>
  <path stroke="#213049" stroke-linecap="square" stroke-linejoin="round" stroke-width="4" d="M2 191h276"/>
  <path fill="#fff" fill-rule="evenodd" d="M230 27a4 4 0 0 0-4 4v2.354A3.99 3.99 0 0 0 223 32h-6a4 4 0 0 0-4 4v2h-5a4 4 0 0 0-4 4v2h-4a2 2 0 0 0-2 2h19v-3h6v3h19a2 2 0 0 0-2-2h-4v-2a4 4 0 0 0-4-4h-5v-2c0-.345-.044-.68-.126-1H253a2 2 0 0 0-2-2h-12v-2a4 4 0 0 0-4-4h-5ZM34 17a4 4 0 0 1 4-4h9a4 4 0 0 1 4 4v3a4.002 4.002 0 0 1 3.875 3.004A2.07 2.07 0 0 1 55 23h5a2 2 0 0 1 2 2H34v-8Z" clip-rule="evenodd"/>
  <path fill="#E9EBF2" d="M232.5 189H198c0-3.732.642-5.649 5.451-6.745-10.75-3.834-2.829-11.058 2.605-8.045-3.395-13.147 8.204-10.408 10.468-3.013 4.526-7.669 12.447-3.834 7.638 4.382 8.204-3.56 8.204 3.561 4.809 5.752 8.205 1.37 3.619 3.937-.907 3.937 3.936 0 4.436 1.732 4.436 3.732Z"/>
  <path fill="#DDE1E6" d="M246.5 189H226c0-1.866 1.571-2.825 3.976-3.372-5.376-1.918-1.415-5.529 1.302-4.023-1.697-6.573 4.102-5.204 5.234-1.506 2.263-3.835 6.224-1.918 3.819 2.191 4.102-1.781 4.102 1.78 2.405 2.876 4.102.684 1.809 1.968-.454 1.968 3.718 0 4.218.366 4.218 1.866Z"/>
</svg>
