<svg xmlns="http://www.w3.org/2000/svg" width="284" height="233" fill="none" viewBox="0 0 284 233">
  <path fill="#5E8BFF" fill-opacity=".1" d="M23 0h234v233H23z"/>
  <path fill="#fff" fill-rule="evenodd" d="M240 29a4 4 0 0 1 4-4h9a4 4 0 0 1 4 4v3a4.002 4.002 0 0 1 3.875 3.004A1.72 1.72 0 0 1 261 35h5a2 2 0 0 1 2 2h-28v-8ZM81 54a4 4 0 0 0-4 4v2h-5a4 4 0 0 0-4 4v2h-4a2 2 0 0 0-2 2h19v-3h6v3h19a2 2 0 0 0-2-2h-4v-2a4 4 0 0 0-4-4h-5v-2a4 4 0 0 0-4-4h-6Zm134-37a4 4 0 0 0-4 4v2h-5a4 4 0 0 0-4 4v2h-5a1 1 0 0 0 0 2h18v-3h6a4 4 0 0 0 4-4v-3a4 4 0 0 0-4-4h-6ZM39 98H25.375a3.976 3.976 0 0 1-1.394 0H16a2 2 0 0 1 2-2h3.208a3.95 3.95 0 0 1 5.082-5.497A4.001 4.001 0 0 1 30 88h5a4 4 0 0 1 4 4v4h1a2 2 0 0 1 2 2h-3Z" clip-rule="evenodd"/>
  <path stroke="#213049" stroke-linecap="square" stroke-linejoin="round" stroke-width="4" d="M2 191h276"/>
  <path fill="#fff" fill-rule="evenodd" d="M280.523 118a4 4 0 0 0-4-4h-8.366a4 4 0 0 0-4 4v.177a4.008 4.008 0 0 0-1.206-.185h-1.98a4 4 0 0 0-4 4v.301H255a4 4 0 0 0-4 4v.293a4 4 0 0 0 4 4h24.841a4 4 0 0 0 4-4v-.293a4.002 4.002 0 0 0-3.318-3.942V118Z" clip-rule="evenodd"/>
  <path fill="#E9EBF2" d="M244 189h-10.81c-9.505 0-5.404-2.825-3-3.372-5.375-1.918-1.414-5.529 1.303-4.023-1.698-6.573 4.102-5.204 5.233-1.506 2.264-3.835 6.224-1.918 3.82 2.191 4.102-1.781 4.102 1.78 2.404 2.876 4.102.684 1.81 1.968-.453 1.968C244 187.5 244 188 244 189Z"/>
  <path fill="#E9EBF2" d="M235.5 189H215c0-1.866 1.571-2.825 3.976-3.372-5.375-1.918-1.415-5.529 1.302-4.023-1.697-6.573 4.102-5.204 5.234-1.506 2.263-3.835 6.224-1.918 3.819 2.191 4.102-1.781 4.102 1.78 2.405 2.876 4.102.684 1.809 1.968-.454 1.968 3.718 0 4.218.366 4.218 1.866Z"/>
  <path fill="#DDE1E6" d="M68.324 189H45c0-2.488.434-3.766 3.686-4.497-7.268-2.556-1.913-7.372 1.76-5.363-2.294-8.765 5.547-6.939 7.077-2.009 3.06-5.112 8.416-2.556 5.164 2.922 5.547-2.374 5.547 2.374 3.252 3.834 5.546.913 2.446 2.625-.614 2.625 2.661 0 3 1.155 3 2.488Z"/>
  <path fill="#3255A4" d="m61 189 16-20v20H61Zm32-20 16-28v28H93Zm32-28 16-28v28h-16Zm32-28 16-28v28h-16Z"/>
  <path fill="#7EA2FF" fill-rule="evenodd" d="m219 86-29-30-29 30h14v55h30V86h14Zm-76 27h30v56h-30v-56Zm-34 56H79v20h30v-20Zm2-28h30v48h-30v-48Z" clip-rule="evenodd"/>
  <path fill="#5E8BFF" fill-rule="evenodd" d="M173.218 86H175v55h30V86h14l-29-30-17.873 18.489A98.85 98.85 0 0 1 173.218 86ZM143 160.758c13.291-12.779 23.007-29.247 27.502-47.758H173v56h-30v-8.242Zm-32 20.609a98.663 98.663 0 0 0 30-18.739V189h-30v-7.633Zm-32 6.822a98.233 98.233 0 0 0 30-6.053V189H79v-.811Z" clip-rule="evenodd"/>
  <circle cx="86" cy="176" r="3" fill="#fff"/>
  <circle cx="118" cy="148" r="3" fill="#fff"/>
  <circle cx="150" cy="120" r="3" fill="#fff"/>
  <circle cx="190" cy="65" r="3" fill="#fff"/>
  <g opacity=".6">
    <rect width="22" height="49" x="218" y="93" fill="#E9EBF2" rx="4"/>
    <path fill="#E1E2E5" d="M228 113h2v76h-2z"/>
    <path fill="#E1E2E5" d="m234.02 115.539 1.073.62-5.22 9.042-1.073-.62zm-4.767 16.676 1.073-.62-7.345-12.721-1.073.62z"/>
  </g>
</svg>
